PathFileType	4	(X/Y/Z)	C:/Users/beibeiliu/ov580/test_trc\sequence.7_training_dense_right.trc
DataRate	CameraRate	NumFrames	NumMarkers	Units	OrigDataRate	OrigDataStartFrame	OrigNumFrames
120	120	23	19	mm	120	1	103
Frame#	Time	ThumbCMC			ThumbMCP			ThumbIP			ThumbTip			IndexMCP			IndexPIP			IndexTip			MiddleMCP			MiddlePIP			MiddleTip			RingMCP			RingPIP			RingTip			PinkyMCP			PinkyPIP			PinkyTip			BackHand1			BackHand2			BackHand3	
		X0	Y0	Z0	X1	Y1	Z1	X2	Y2	Z2	X3	Y3	Z3	X4	Y4	Z4	X5	Y5	Z5	X6	Y6	Z6	X7	Y7	Z7	X8	Y8	Z8	X9	Y9	Z9	X10	Y10	Z10	X11	Y11	Z11	X12	Y12	Z12	X13	Y13	Z13	X14	Y14	Z14	X15	Y15	Z15	X16	Y16	Z16	X17	Y17	Z17	X18	Y18	Z18	
0	0	43.6578	24.1801	44.9183	21.7113	7.2152	26.8408	15.5997	-1.99069	4.25731	14.1305	-10.9455	-14.8639	35.9911	32.4657	-22.3509	28.9503	20.0009	-46.5242	20.5479	7.57583	-61.1753	59.4662	31.8372	-32.5646	51.5733	22.4153	-55.8744	50.6773	4.58392	-77.8444	76.8187	26.9489	-29.7171	73.7451	18.1243	-52.7093	71.9148	5.08915	-72.186	95.9724	21.5063	-20.2186	99.4739	15.5763	-38.5764	102.893	10.4479	-54.8163	83.2093	40.4925	13.9382	87.3676	46.29	40.7664	60.4632	46.3993	32.2799	
1	0.00833333	40.2874	23.5797	40.1971	25.6657	7.67208	26.8466	17.2323	-1.39236	1.92342	11.1166	-12.385	-13.5215	35.8746	31.4799	-22.3617	26.5179	21.398	-46.3935	23.6571	5.04685	-64.5015	55.7595	31.6544	-31.0289	49.9469	20.3021	-59.0726	49.3914	4.21032	-79.7279	74.0023	26.8605	-31.6836	78.3339	18.2988	-50.4487	70.4694	5.76139	-71.6441	94.977	20.6423	-19.3883	99.2539	14.6877	-39.5667	98.0722	9.12662	-57.9047	82.6333	39.3912	14.1397	87.0652	44.5272	40.3613	58.8283	46.8464	29.2184	
2	0.0166667	40.0785	22.8785	45.5427	25.9888	7.26061	24.0729	16.0206	-1.92458	2.54071	13.8827	-10.3614	-15.1836	36.087	31.2687	-22.8666	26.4391	22.8954	-42.9054	24.6381	7.47841	-62.4665	54.8016	30.828	-35.9079	49.5786	21.0608	-58.5706	49.4008	3.85385	-80.7304	76.952	26.5841	-30.5714	74.2077	18.8356	-49.676	71.4608	5.89752	-70.2529	95.0318	22.0043	-20.9602	98.8409	14.9036	-36.836	98.6711	11.3281	-54.2415	83.157	39.605	12.9858	89.2711	45.1382	37.1645	60.9457	47.0173	30.3534	
3	0.025	38.1668	23.1855	42.8126	23.3413	7.0744	26.7914	16.2576	-1.02742	0.995262	11.8733	-11.4094	-16.4087	33.8506	32.0251	-20.7287	25.629	20.4522	-46.2664	25.198	6.59636	-63.8038	58.7558	31.6683	-34.4195	53.0763	20.6365	-59.9113	51.9351	4.90181	-79.2013	74.7498	28.0148	-32.1086	74.3961	18.2895	-53.76	69.6104	6.08883	-70.4392	94.5163	22.8547	-19.5688	97.1379	16.861	-35.005	99.4027	11.1506	-57.8947	79.978	42.0258	13.5559	87.8477	43.6268	40.3483	56.0539	46.3752	27.8366	
4	0.0333333	36.4137	24.1024	42.022	24.0796	7.76942	25.9141	15.4402	-0.705229	2.84999	12.7793	-10.8832	-16.8262	34.5634	32.028	-24.4437	25.7338	23.149	-43.839	25.6947	6.82274	-62.622	54.4951	33.2469	-30.0598	50.8452	20.8955	-58.8851	48.9877	7.2899	-77.6751	74.6156	27.8178	-26.5731	71.3191	18.3947	-53.261	69.4925	6.60378	-71.8503	95.7837	22.7042	-16.4007	97.3618	17.2601	-39.3152	98.9234	10.7791	-57.4175	80.8773	41.4532	17.0323	90.1411	45.8454	40.0656	61.6483	46.506	30.8399	
5	0.0416667	36.9277	23.4935	40.8647	26.0649	7.85283	25.0646	17.9025	-1.04926	6.86302	13.2534	-10.2766	-13.3431	31.8799	31.4725	-22.0911	29.4614	21.3116	-46.2274	19.131	4.98877	-63.8163	56.6739	32.8564	-30.55	53.4194	23.2531	-56.5732	48.2563	8.1912	-76.1143	73.1472	28.0245	-29.8239	75.0018	19.953	-50.9253	68.1726	8.05312	-67.6091	96.9445	22.4019	-19.7381	95.7296	18.5611	-35.6589	100.822	12.0448	-58.705	84.3152	40.2153	13.5853	86.6821	44.5928	37.9409	60.3315	46.3274	27.1002	
6	0.05	39.2666	22.7277	41.1412	22.2385	7.19806	26.5486	12.679	-2.02647	4.21828	9.36609	-12.4298	-13.4048	32.4963	31.1276	-22.6721	23.3515	21.1028	-45.5002	23.4705	6.018	-63.8269	53.1561	33.1043	-31.5637	50.2996	23.1154	-56.356	47.7475	6.94034	-77.8982	76.6534	28.0559	-30.5105	75.2043	19.51	-51.4943	70.777	8.04739	-68.8285	93.7235	22.6762	-17.453	98.7717	16.1246	-38.0539	99.7624	11.3329	-59.1716	80.9773	41.4924	16.6369	84.5618	44.3298	40.2842	57.8939	45.509	28.0381	
7	0.0583333	38.5374	22.9032	45.324	22.2348	7.94783	25.8469	13.7116	-0.914726	4.79661	9.21191	-10.6392	-15.7567	30.2003	32.716	-22.8836	25.8966	20.8423	-47.5218	20.0991	6.00475	-65.9508	54.748	32.3482	-33.766	49.9919	22.7584	-57.7902	49.468	5.28055	-81.857	76.7949	27.3475	-31.411	75.4941	19.2585	-52.9311	67.4968	9.97334	-68.9807	94.0226	23.4748	-16.4725	95.7217	18.518	-35.1038	100.575	14.0102	-56.9928	79.4188	42.839	12.219	85.5664	45.5139	41.6595	56.1893	46.9647	31.2063	
8	0.0666667	40.0405	24.3131	39.4204	21.9819	8.80441	25.7217	15.4855	0.94318	5.84431	9.22173	-9.60901	-13.8568	32.3387	33.1135	-24.8806	25.0751	24.3643	-46.9289	22.487	11.2491	-63.6397	55.8109	34.1568	-33.1078	50.7681	22.7165	-60.1349	48.0597	10.788	-77.2669	74.1248	29.8951	-27.645	72.7117	21.2807	-50.0333	68.6878	9.05343	-72.0331	95.4098	24.2331	-18.7943	94.5204	18.179	-38.186	100.977	12.4185	-54.3788	84.0446	43.4564	12.7081	88.049	45.4612	37.7686	59.8577	46.6708	30.8899	
9	0.075	38.0462	26.0474	43.6581	21.3593	10.0058	23.9728	13.5152	2.85601	4.64062	8.12705	-6.45408	-17.0062	34.6374	35.5992	-26.3254	24.7713	27.1885	-44.5064	22.0484	10.5235	-66.324	52.1224	36.3594	-36.0964	50.2764	24.6089	-60.7906	46.8454	11.9268	-78.9594	75.0235	31.3212	-28.9337	71.3873	22.1656	-50.906	66.729	8.54544	-70.2351	97.3311	25.1327	-20.1204	95.2922	18.859	-39.1829	94.3964	12.2457	-57.8521	79.3787	42.6512	15.4558	87.3323	45.8248	36.1432	61.5849	49.6586	30.4657	
10	0.0833333	40.5353	27.6936	38.5158	19.8658	12.5626	20.1745	11.4669	3.85108	0.886288	9.05976	-3.5842	-20.0724	34.2302	38.3427	-23.818	25.7344	26.9713	-49.8564	27.2118	13.6404	-66.8891	55.8081	37.3431	-36.7341	54.5273	27.6549	-59.8318	50.3473	8.15663	-78.8076	76.6888	32.7451	-33.9135	72.8597	22.1215	-53.6206	66.502	3.89781	-68.5303	97.9287	25.8328	-21.726	93.9431	18.2042	-41.0959	89.386	2.99275	-59.9404	80.7202	44.618	16.0787	87.2749	48.5388	39.5484	61.0566	48.3905	30.0025	
11	0.0916667	41.3075	28.0446	41.187	27.2611	16.4835	19.161	14.0905	9.7683	-4.89959	7.27579	2.39319	-24.0237	35.1104	41.0932	-27.4048	31.5089	29.9755	-51.8357	28.7509	9.48936	-67.3183	56.1912	41.0771	-34.286	54.7518	26.6806	-62.0547	48.6726	1.96949	-74.117	78.0073	35.3059	-34.1441	74.7102	20.079	-53.7299	64.016	-4.86885	-60.1967	93.6668	27.8482	-26.148	92.1683	13.1867	-44.0554	83.8425	-6.34239	-50.6041	84.1567	46.8043	9.97093	88.2353	48.5622	37.5653	58.403	50.8074	25.9822	
12	0.1	40.8127	31.6145	38.6354	28.4792	20.9932	16.3301	17.4872	16.067	-2.30291	8.23528	12.0042	-21.4538	37.9103	45.943	-31.3991	35.679	30.5758	-52.8232	30.0983	8.50791	-59.9069	58.0845	42.8137	-40.5592	58.0637	20.3396	-60.9261	52.8719	-6.4084	-59.2419	78.5266	35.1401	-36.5046	74.7063	12.3221	-52.4661	61.4172	-9.17826	-45.0437	96.7538	27.1342	-27.5681	87.3326	10.0902	-40.4781	73.8306	-9.41025	-34.2529	85.9584	50.8795	10.8466	90.5895	48.9581	36.1521	62.7833	55.4294	28.7536	
13	0.108333	46.4798	34.9939	34.109	29.4641	25.2938	13.7991	19.8806	24.5304	-5.68107	9.0455	20.2724	-21.867	45.7152	47.2367	-30.1384	40.2232	28.2284	-51.7087	35.5354	-1.71829	-45.5195	66.132	41.615	-37.8234	59.141	17.3002	-55.4596	53.981	-11.4199	-37.0942	82.193	30.2148	-37.9484	69.3448	9.66216	-44.1669	63.7336	-9.56446	-28.5933	99.0476	23.884	-25.1217	84.343	1.75365	-32.4086	70.8095	-6.95308	-18.3374	89.3354	50.3153	13.2914	93.5149	49.5254	35.0173	65.5142	57.3499	28.586	
14	0.116667	45.0615	36.6942	33.472	26.7374	28.4401	15.1847	18.7369	29.4518	-6.19039	7.37735	28.8003	-27.874	43.8375	45.7308	-34.6697	40.6152	19.611	-46.0584	36.4855	-0.983758	-28.7908	61.12	36.6764	-37.9309	58.1772	9.45063	-46.9919	53.3664	-7.99415	-18.0546	81.8046	24.6507	-35.1199	67.8456	-0.989592	-33.0106	61.9197	-5.69106	-6.43726	95.4386	19.5357	-24.0314	83.755	-3.14122	-25.2284	69.9176	-3.59155	0.51588	93.7563	48.8977	10.3159	93.2698	49.3797	37.0129	67.3397	56.2944	24.0494	
15	0.125	43.7096	40.1054	33.216	28.6622	32.9762	13.6099	17.484	34.4829	-5.92263	8.94992	34.2009	-24.3357	43.5612	42.9745	-33.6362	37.2033	14.7484	-37.586	36.5923	1.92274	-12.848	60.897	29.9545	-37.2156	51.1896	2.472	-33.2384	51.2581	-1.89881	-4.1195	74.8273	20.5021	-32.1833	68.6382	-3.85145	-24.5763	64.4916	-0.134372	5.71719	92.9818	14.5104	-22.9912	79.0538	-4.59067	-15.1994	71.0879	3.5442	9.49498	96.375	48.5857	10.3364	97.8901	48.375	34.1034	69.6192	56.0943	26.9853	
16	0.133333	47.219	40.549	33.4909	27.051	38.2622	12.7879	20.5063	41.2127	-10.2772	9.12569	41.4525	-26.8841	43.805	39.3912	-33.6676	35.6767	13.1433	-32.37	42.0603	6.36991	-2.67351	60.7509	29.5151	-33.5912	50.7538	1.55127	-26.6574	56.775	3.37452	4.48279	75.9735	19.8651	-26.9088	63.5981	-2.9923	-12.5939	64.2463	9.22633	13.3106	92.9259	12.4461	-19.9552	74.6233	-2.99591	-5.89097	72.8625	11.248	15.3858	95.0433	48.1866	10.6301	98.1536	47.3458	37.6309	71.3636	55.7054	27.1203	
17	0.141667	44.2713	44.5114	31.3149	30.3453	41.6102	8.4749	18.3817	44.2461	-8.3868	10.1712	46.142	-24.9766	47.2839	34.3096	-34.5949	39.3541	8.43463	-29.133	42.2217	8.47107	-0.830444	62.4655	20.6882	-32.652	51.9296	-2.78111	-17.813	52.6971	9.19403	10.185	72.9034	13.0231	-25.5596	63.7575	-4.70263	-4.07578	63.6166	12.513	14.6059	87.2595	6.52015	-17.7084	73.6411	-4.72915	0.120645	74.8728	9.02042	20.7512	96.5211	45.5364	9.35307	97.2255	46.4546	38.9565	68.8115	56.7213	25.3156	
18	0.15	42.534	45.7668	33.8969	30.3924	44.1177	7.89416	19.4039	46.0576	-9.41111	10.6445	49.2458	-27.838	46.9672	31.4793	-33.0381	39.4163	5.1447	-28.1819	44.5913	8.71177	4.20191	60.7057	15.2876	-31.7083	52.8208	-6.53012	-17.3252	57.1571	8.77057	13.4409	79.3064	6.52388	-21.461	62.0465	-8.05714	-4.32842	64.9214	12.7634	17.1425	90.288	2.40408	-13.47	71.4774	-7.62698	4.17278	73.9448	6.85623	20.9579	93.5159	42.5074	8.21513	93.1147	43.6583	36.9173	72.9423	54.9849	22.6182	
19	0.158333	46.024	47.2658	30.075	36.2758	44.6611	6.55014	27.251	46.3433	-10.3028	16.647	50.4566	-28.8797	51.8216	26.9624	-30.2235	38.6272	1.46262	-24.1583	38.4368	8.33911	4.626	66.6864	6.25912	-27.5179	51.0303	-10.4189	-10.4626	54.2627	8.78665	16.3032	75.6501	-3.39539	-17.5912	57.9433	-9.48662	1.31996	65.9279	12.6558	19.5958	89.2329	-3.69757	-7.701	70.6791	-13.467	7.33179	70.4331	10.1903	23.1897	96.0245	36.0473	8.23247	97.499	40.2227	35.7949	76.9843	51.6342	24.1917	
20	0.166667	52.3155	46.178	28.3393	39.0663	46.1301	9.84815	28.2762	51.2252	-12.2503	25.8938	51.9297	-30.3658	57.4755	19.0122	-29.2196	37.009	0.806662	-21.6467	38.4878	10.158	6.53797	66.3779	6.36171	-24.8072	47.8599	-13.2742	-9.64095	50.2701	10.4653	17.9815	73.5071	-7.76473	-13.798	54.6318	-10.7446	6.33633	64.2408	6.10163	23.7797	87.0112	-15.7694	-1.54667	67.9743	-18.3094	13.1312	70.9509	4.33591	29.0117	102.855	26.6106	16.4138	101.442	35.0942	41.4302	77.6855	49.3223	18.9853	
21	0.175	54.3008	49.5099	28.1127	43.7098	47.5458	5.79054	33.6963	54.8503	-14.0913	27.9438	56.5307	-28.0895	54.8161	15.4664	-29.399	35.3822	1.10251	-21.6344	38.9867	14.2873	10.3024	63.6419	0.33697	-22.1498	40.3535	-9.27259	-4.45959	49.002	9.58357	20.1876	70.3181	-13.9013	-9.56106	52.3868	-14.0687	7.57342	61.3663	5.84373	26.5835	78.9597	-20.4464	1.89917	60.9743	-16.0597	16.1754	67.6679	5.19026	29.2576	99.1781	24.5071	17.9503	99.5931	30.5312	43.2874	84.4477	44.8638	24.033	
22	0.183333	56.8738	49.8549	29.0126	45.0869	49.0311	9.63493	39.1937	55.6778	-15.7292	31.6992	59.9571	-30.5932	54.4174	16.1921	-29.2036	34.5617	2.05225	-16.7909	38.0902	12.7996	10.2997	65.7968	-0.41973	-18.5356	41.5647	-11.4313	-3.23169	49.5934	11.4677	21.2631	71.4166	-13.3349	-6.81728	48.2065	-12.8955	9.60518	60.4177	6.13179	28.9076	74.4313	-18.7835	2.916	58.3254	-18.0097	19.6038	65.3668	7.56143	29.3554	99.6039	20.0547	14.937	97.8795	29.8194	45.8599	84.7174	42.4663	21.4591	
